<mxfile host="Electron" modified="2024-10-15T10:09:47.454Z" agent="Mozilla/5.0 (Windows NT 10.0; Win64; x64) AppleWebKit/537.36 (KHTML, like Gecko) draw.io/22.1.16 Chrome/120.0.6099.109 Electron/28.1.0 Safari/537.36" etag="TCFXHO0dZ_bsz_JyHH0d" version="22.1.16" type="device" pages="3">
  <diagram name="Module 3" id="CHVJu84iNEhKkRVSbIUE">
    <mxGraphModel dx="3305" dy="7685" grid="0" gridSize="10" guides="1" tooltips="1" connect="1" arrows="1" fold="1" page="0" pageScale="1" pageWidth="827" pageHeight="1169" math="0" shadow="0">
      <root>
        <mxCell id="0" />
        <mxCell id="1" parent="0" />
        <mxCell id="LpP1oxPUB7b7Ap5Ta2ox-3" style="edgeStyle=none;curved=1;rounded=0;orthogonalLoop=1;jettySize=auto;html=1;fontSize=12;startSize=8;endSize=8;entryX=0;entryY=1;entryDx=0;entryDy=0;" edge="1" parent="1" source="LpP1oxPUB7b7Ap5Ta2ox-1" target="LpP1oxPUB7b7Ap5Ta2ox-2">
          <mxGeometry relative="1" as="geometry" />
        </mxCell>
        <mxCell id="LpP1oxPUB7b7Ap5Ta2ox-1" value="module 3" style="ellipse;whiteSpace=wrap;html=1;fontSize=16;" vertex="1" parent="1">
          <mxGeometry x="-73" y="180" width="120" height="80" as="geometry" />
        </mxCell>
        <mxCell id="LpP1oxPUB7b7Ap5Ta2ox-2" value="SQL" style="ellipse;whiteSpace=wrap;html=1;fontSize=16;" vertex="1" parent="1">
          <mxGeometry x="161" y="-390" width="120" height="80" as="geometry" />
        </mxCell>
        <mxCell id="LpP1oxPUB7b7Ap5Ta2ox-13" style="edgeStyle=none;curved=1;rounded=0;orthogonalLoop=1;jettySize=auto;html=1;entryX=0;entryY=0.25;entryDx=0;entryDy=0;fontSize=12;startSize=8;endSize=8;" edge="1" parent="1" source="LpP1oxPUB7b7Ap5Ta2ox-5" target="LpP1oxPUB7b7Ap5Ta2ox-7">
          <mxGeometry relative="1" as="geometry" />
        </mxCell>
        <mxCell id="LpP1oxPUB7b7Ap5Ta2ox-14" style="edgeStyle=none;curved=1;rounded=0;orthogonalLoop=1;jettySize=auto;html=1;entryX=0;entryY=0.5;entryDx=0;entryDy=0;fontSize=12;startSize=8;endSize=8;" edge="1" parent="1" source="LpP1oxPUB7b7Ap5Ta2ox-5" target="LpP1oxPUB7b7Ap5Ta2ox-8">
          <mxGeometry relative="1" as="geometry" />
        </mxCell>
        <mxCell id="LpP1oxPUB7b7Ap5Ta2ox-15" style="edgeStyle=none;curved=1;rounded=0;orthogonalLoop=1;jettySize=auto;html=1;entryX=0;entryY=0.5;entryDx=0;entryDy=0;fontSize=12;startSize=8;endSize=8;" edge="1" parent="1" source="LpP1oxPUB7b7Ap5Ta2ox-5" target="LpP1oxPUB7b7Ap5Ta2ox-9">
          <mxGeometry relative="1" as="geometry" />
        </mxCell>
        <mxCell id="LpP1oxPUB7b7Ap5Ta2ox-16" style="edgeStyle=none;curved=1;rounded=0;orthogonalLoop=1;jettySize=auto;html=1;entryX=0;entryY=0.5;entryDx=0;entryDy=0;fontSize=12;startSize=8;endSize=8;" edge="1" parent="1" source="LpP1oxPUB7b7Ap5Ta2ox-5" target="LpP1oxPUB7b7Ap5Ta2ox-10">
          <mxGeometry relative="1" as="geometry" />
        </mxCell>
        <mxCell id="LpP1oxPUB7b7Ap5Ta2ox-17" style="edgeStyle=none;curved=1;rounded=0;orthogonalLoop=1;jettySize=auto;html=1;entryX=0;entryY=0.5;entryDx=0;entryDy=0;fontSize=12;startSize=8;endSize=8;" edge="1" parent="1" source="LpP1oxPUB7b7Ap5Ta2ox-5" target="LpP1oxPUB7b7Ap5Ta2ox-11">
          <mxGeometry relative="1" as="geometry" />
        </mxCell>
        <mxCell id="LpP1oxPUB7b7Ap5Ta2ox-18" style="edgeStyle=none;curved=1;rounded=0;orthogonalLoop=1;jettySize=auto;html=1;entryX=0;entryY=0.5;entryDx=0;entryDy=0;fontSize=12;startSize=8;endSize=8;" edge="1" parent="1" source="LpP1oxPUB7b7Ap5Ta2ox-5" target="LpP1oxPUB7b7Ap5Ta2ox-12">
          <mxGeometry relative="1" as="geometry" />
        </mxCell>
        <mxCell id="LpP1oxPUB7b7Ap5Ta2ox-5" value="Ràng buộc&lt;br&gt;(Constraint)" style="ellipse;whiteSpace=wrap;html=1;fontSize=16;" vertex="1" parent="1">
          <mxGeometry x="474" y="-1788" width="120" height="80" as="geometry" />
        </mxCell>
        <mxCell id="LpP1oxPUB7b7Ap5Ta2ox-6" style="edgeStyle=none;curved=1;rounded=0;orthogonalLoop=1;jettySize=auto;html=1;entryX=0.33;entryY=0.989;entryDx=0;entryDy=0;entryPerimeter=0;fontSize=12;startSize=8;endSize=8;" edge="1" parent="1" source="LpP1oxPUB7b7Ap5Ta2ox-2" target="LpP1oxPUB7b7Ap5Ta2ox-5">
          <mxGeometry relative="1" as="geometry" />
        </mxCell>
        <mxCell id="LpP1oxPUB7b7Ap5Ta2ox-7" value="NOT NULL&lt;br&gt;dữ liệu ko đc bỏ trống" style="rounded=1;whiteSpace=wrap;html=1;fontSize=16;" vertex="1" parent="1">
          <mxGeometry x="774" y="-2000" width="195" height="63" as="geometry" />
        </mxCell>
        <mxCell id="LpP1oxPUB7b7Ap5Ta2ox-8" value="DEFAULT&lt;br&gt;gán giá trị mặc định khi cột ko đc nhập" style="rounded=1;whiteSpace=wrap;html=1;fontSize=16;" vertex="1" parent="1">
          <mxGeometry x="774" y="-1904" width="290" height="61" as="geometry" />
        </mxCell>
        <mxCell id="LpP1oxPUB7b7Ap5Ta2ox-9" value="UNIQUE&lt;br&gt;dữ liệu trên 1 cột ko thể trùng" style="rounded=1;whiteSpace=wrap;html=1;fontSize=16;" vertex="1" parent="1">
          <mxGeometry x="774" y="-1810" width="242" height="61" as="geometry" />
        </mxCell>
        <mxCell id="LpP1oxPUB7b7Ap5Ta2ox-10" value="PRIMARY KEY&lt;br&gt;cột làm khóa chính phải UNIQUE và NOT NULL" style="rounded=1;whiteSpace=wrap;html=1;fontSize=16;" vertex="1" parent="1">
          <mxGeometry x="774" y="-1705" width="374" height="61" as="geometry" />
        </mxCell>
        <mxCell id="LpP1oxPUB7b7Ap5Ta2ox-11" value="FOREIGN KEY&lt;br&gt;tham chiếu đến bảng khác thông giá trị đc liên kết&lt;br&gt;giá trị cột liên kêt phải là PRIMARY KEY hoặc UNIQUE" style="rounded=1;whiteSpace=wrap;html=1;fontSize=16;" vertex="1" parent="1">
          <mxGeometry x="774" y="-1617" width="419" height="80" as="geometry" />
        </mxCell>
        <mxCell id="LpP1oxPUB7b7Ap5Ta2ox-12" value="CHECK&lt;br&gt;đảm bảo giá trị nhập vào phải thỏa mản điều kiện đặt ra (Validate data)" style="rounded=1;whiteSpace=wrap;html=1;fontSize=16;" vertex="1" parent="1">
          <mxGeometry x="774" y="-1510" width="521" height="73" as="geometry" />
        </mxCell>
        <mxCell id="LpP1oxPUB7b7Ap5Ta2ox-44" style="edgeStyle=none;curved=1;rounded=0;orthogonalLoop=1;jettySize=auto;html=1;entryX=0;entryY=0.5;entryDx=0;entryDy=0;fontSize=12;startSize=8;endSize=8;" edge="1" parent="1" source="LpP1oxPUB7b7Ap5Ta2ox-19" target="LpP1oxPUB7b7Ap5Ta2ox-22">
          <mxGeometry relative="1" as="geometry" />
        </mxCell>
        <mxCell id="LpP1oxPUB7b7Ap5Ta2ox-45" style="edgeStyle=none;curved=1;rounded=0;orthogonalLoop=1;jettySize=auto;html=1;entryX=0;entryY=0.5;entryDx=0;entryDy=0;fontSize=12;startSize=8;endSize=8;" edge="1" parent="1" source="LpP1oxPUB7b7Ap5Ta2ox-19" target="LpP1oxPUB7b7Ap5Ta2ox-24">
          <mxGeometry relative="1" as="geometry" />
        </mxCell>
        <mxCell id="LpP1oxPUB7b7Ap5Ta2ox-46" style="edgeStyle=none;curved=1;rounded=0;orthogonalLoop=1;jettySize=auto;html=1;entryX=0;entryY=0.5;entryDx=0;entryDy=0;fontSize=12;startSize=8;endSize=8;" edge="1" parent="1" source="LpP1oxPUB7b7Ap5Ta2ox-19" target="LpP1oxPUB7b7Ap5Ta2ox-23">
          <mxGeometry relative="1" as="geometry" />
        </mxCell>
        <mxCell id="LpP1oxPUB7b7Ap5Ta2ox-47" style="edgeStyle=none;curved=1;rounded=0;orthogonalLoop=1;jettySize=auto;html=1;entryX=0;entryY=0.5;entryDx=0;entryDy=0;fontSize=12;startSize=8;endSize=8;" edge="1" parent="1" source="LpP1oxPUB7b7Ap5Ta2ox-19" target="LpP1oxPUB7b7Ap5Ta2ox-25">
          <mxGeometry relative="1" as="geometry" />
        </mxCell>
        <mxCell id="LpP1oxPUB7b7Ap5Ta2ox-48" style="edgeStyle=none;curved=1;rounded=0;orthogonalLoop=1;jettySize=auto;html=1;entryX=0;entryY=0.5;entryDx=0;entryDy=0;fontSize=12;startSize=8;endSize=8;" edge="1" parent="1" source="LpP1oxPUB7b7Ap5Ta2ox-19" target="LpP1oxPUB7b7Ap5Ta2ox-26">
          <mxGeometry relative="1" as="geometry" />
        </mxCell>
        <mxCell id="LpP1oxPUB7b7Ap5Ta2ox-19" value="MySQL" style="ellipse;whiteSpace=wrap;html=1;fontSize=16;" vertex="1" parent="1">
          <mxGeometry x="399" y="-2760" width="120" height="80" as="geometry" />
        </mxCell>
        <mxCell id="LpP1oxPUB7b7Ap5Ta2ox-20" style="edgeStyle=none;curved=1;rounded=0;orthogonalLoop=1;jettySize=auto;html=1;entryX=0;entryY=0.55;entryDx=0;entryDy=0;entryPerimeter=0;fontSize=12;startSize=8;endSize=8;" edge="1" parent="1" source="LpP1oxPUB7b7Ap5Ta2ox-2" target="LpP1oxPUB7b7Ap5Ta2ox-19">
          <mxGeometry relative="1" as="geometry" />
        </mxCell>
        <mxCell id="LpP1oxPUB7b7Ap5Ta2ox-49" style="edgeStyle=none;curved=1;rounded=0;orthogonalLoop=1;jettySize=auto;html=1;entryX=0;entryY=0.5;entryDx=0;entryDy=0;fontSize=12;startSize=8;endSize=8;" edge="1" parent="1" source="LpP1oxPUB7b7Ap5Ta2ox-22" target="LpP1oxPUB7b7Ap5Ta2ox-27">
          <mxGeometry relative="1" as="geometry" />
        </mxCell>
        <mxCell id="LpP1oxPUB7b7Ap5Ta2ox-50" style="edgeStyle=none;curved=1;rounded=0;orthogonalLoop=1;jettySize=auto;html=1;entryX=0;entryY=0.75;entryDx=0;entryDy=0;fontSize=12;startSize=8;endSize=8;" edge="1" parent="1" source="LpP1oxPUB7b7Ap5Ta2ox-22" target="LpP1oxPUB7b7Ap5Ta2ox-30">
          <mxGeometry relative="1" as="geometry" />
        </mxCell>
        <mxCell id="LpP1oxPUB7b7Ap5Ta2ox-51" style="edgeStyle=none;curved=1;rounded=0;orthogonalLoop=1;jettySize=auto;html=1;entryX=0;entryY=0.5;entryDx=0;entryDy=0;fontSize=12;startSize=8;endSize=8;" edge="1" parent="1" source="LpP1oxPUB7b7Ap5Ta2ox-22" target="LpP1oxPUB7b7Ap5Ta2ox-29">
          <mxGeometry relative="1" as="geometry" />
        </mxCell>
        <mxCell id="LpP1oxPUB7b7Ap5Ta2ox-52" style="edgeStyle=none;curved=1;rounded=0;orthogonalLoop=1;jettySize=auto;html=1;entryX=0;entryY=0.5;entryDx=0;entryDy=0;fontSize=12;startSize=8;endSize=8;" edge="1" parent="1" source="LpP1oxPUB7b7Ap5Ta2ox-22" target="LpP1oxPUB7b7Ap5Ta2ox-28">
          <mxGeometry relative="1" as="geometry" />
        </mxCell>
        <mxCell id="LpP1oxPUB7b7Ap5Ta2ox-22" value="DDL&lt;br&gt;(cấu trúc DB)" style="rounded=1;whiteSpace=wrap;html=1;fontSize=16;" vertex="1" parent="1">
          <mxGeometry x="555" y="-3843" width="168" height="60" as="geometry" />
        </mxCell>
        <mxCell id="LpP1oxPUB7b7Ap5Ta2ox-56" style="edgeStyle=none;curved=1;rounded=0;orthogonalLoop=1;jettySize=auto;html=1;entryX=0;entryY=0.5;entryDx=0;entryDy=0;fontSize=12;startSize=8;endSize=8;" edge="1" parent="1" source="LpP1oxPUB7b7Ap5Ta2ox-23" target="LpP1oxPUB7b7Ap5Ta2ox-35">
          <mxGeometry relative="1" as="geometry" />
        </mxCell>
        <mxCell id="LpP1oxPUB7b7Ap5Ta2ox-23" value="DQL" style="rounded=1;whiteSpace=wrap;html=1;fontSize=16;" vertex="1" parent="1">
          <mxGeometry x="609" y="-3156" width="120" height="63" as="geometry" />
        </mxCell>
        <mxCell id="LpP1oxPUB7b7Ap5Ta2ox-53" style="edgeStyle=none;curved=1;rounded=0;orthogonalLoop=1;jettySize=auto;html=1;entryX=0;entryY=0.5;entryDx=0;entryDy=0;fontSize=12;startSize=8;endSize=8;" edge="1" parent="1" source="LpP1oxPUB7b7Ap5Ta2ox-24" target="LpP1oxPUB7b7Ap5Ta2ox-31">
          <mxGeometry relative="1" as="geometry" />
        </mxCell>
        <mxCell id="LpP1oxPUB7b7Ap5Ta2ox-55" style="edgeStyle=none;curved=1;rounded=0;orthogonalLoop=1;jettySize=auto;html=1;fontSize=12;startSize=8;endSize=8;" edge="1" parent="1" source="LpP1oxPUB7b7Ap5Ta2ox-24" target="LpP1oxPUB7b7Ap5Ta2ox-33">
          <mxGeometry relative="1" as="geometry" />
        </mxCell>
        <mxCell id="LpP1oxPUB7b7Ap5Ta2ox-62" style="edgeStyle=none;curved=1;rounded=0;orthogonalLoop=1;jettySize=auto;html=1;entryX=0;entryY=0.5;entryDx=0;entryDy=0;fontSize=12;startSize=8;endSize=8;" edge="1" parent="1" source="LpP1oxPUB7b7Ap5Ta2ox-24" target="LpP1oxPUB7b7Ap5Ta2ox-34">
          <mxGeometry relative="1" as="geometry" />
        </mxCell>
        <mxCell id="LpP1oxPUB7b7Ap5Ta2ox-24" value="DML&lt;br&gt;(làm việc vs dữ liệu trong DB)" style="rounded=1;whiteSpace=wrap;html=1;fontSize=16;" vertex="1" parent="1">
          <mxGeometry x="571" y="-3438" width="225" height="60" as="geometry" />
        </mxCell>
        <mxCell id="LpP1oxPUB7b7Ap5Ta2ox-57" style="edgeStyle=none;curved=1;rounded=0;orthogonalLoop=1;jettySize=auto;html=1;entryX=0;entryY=0.5;entryDx=0;entryDy=0;fontSize=12;startSize=8;endSize=8;" edge="1" parent="1" source="LpP1oxPUB7b7Ap5Ta2ox-25" target="LpP1oxPUB7b7Ap5Ta2ox-36">
          <mxGeometry relative="1" as="geometry" />
        </mxCell>
        <mxCell id="LpP1oxPUB7b7Ap5Ta2ox-58" style="edgeStyle=none;curved=1;rounded=0;orthogonalLoop=1;jettySize=auto;html=1;entryX=0;entryY=0.5;entryDx=0;entryDy=0;fontSize=12;startSize=8;endSize=8;" edge="1" parent="1" source="LpP1oxPUB7b7Ap5Ta2ox-25" target="LpP1oxPUB7b7Ap5Ta2ox-38">
          <mxGeometry relative="1" as="geometry" />
        </mxCell>
        <mxCell id="LpP1oxPUB7b7Ap5Ta2ox-59" style="edgeStyle=none;curved=1;rounded=0;orthogonalLoop=1;jettySize=auto;html=1;entryX=0;entryY=0.5;entryDx=0;entryDy=0;fontSize=12;startSize=8;endSize=8;" edge="1" parent="1" source="LpP1oxPUB7b7Ap5Ta2ox-25" target="LpP1oxPUB7b7Ap5Ta2ox-37">
          <mxGeometry relative="1" as="geometry" />
        </mxCell>
        <mxCell id="LpP1oxPUB7b7Ap5Ta2ox-25" value="TCL" style="rounded=1;whiteSpace=wrap;html=1;fontSize=16;" vertex="1" parent="1">
          <mxGeometry x="618" y="-2945" width="120" height="60" as="geometry" />
        </mxCell>
        <mxCell id="LpP1oxPUB7b7Ap5Ta2ox-60" style="edgeStyle=none;curved=1;rounded=0;orthogonalLoop=1;jettySize=auto;html=1;entryX=0;entryY=0.5;entryDx=0;entryDy=0;fontSize=12;startSize=8;endSize=8;" edge="1" parent="1" source="LpP1oxPUB7b7Ap5Ta2ox-26" target="LpP1oxPUB7b7Ap5Ta2ox-42">
          <mxGeometry relative="1" as="geometry" />
        </mxCell>
        <mxCell id="LpP1oxPUB7b7Ap5Ta2ox-61" style="edgeStyle=none;curved=1;rounded=0;orthogonalLoop=1;jettySize=auto;html=1;entryX=0;entryY=0.5;entryDx=0;entryDy=0;fontSize=12;startSize=8;endSize=8;" edge="1" parent="1" source="LpP1oxPUB7b7Ap5Ta2ox-26" target="LpP1oxPUB7b7Ap5Ta2ox-43">
          <mxGeometry relative="1" as="geometry" />
        </mxCell>
        <mxCell id="LpP1oxPUB7b7Ap5Ta2ox-26" value="DCL" style="rounded=1;whiteSpace=wrap;html=1;fontSize=16;" vertex="1" parent="1">
          <mxGeometry x="633" y="-2680" width="120" height="60" as="geometry" />
        </mxCell>
        <mxCell id="LpP1oxPUB7b7Ap5Ta2ox-27" value="CREATE" style="rounded=1;whiteSpace=wrap;html=1;fontSize=16;" vertex="1" parent="1">
          <mxGeometry x="936" y="-4086" width="120" height="60" as="geometry" />
        </mxCell>
        <mxCell id="LpP1oxPUB7b7Ap5Ta2ox-28" value="TRUNCATE" style="rounded=1;whiteSpace=wrap;html=1;fontSize=16;" vertex="1" parent="1">
          <mxGeometry x="939" y="-3783" width="120" height="60" as="geometry" />
        </mxCell>
        <mxCell id="LpP1oxPUB7b7Ap5Ta2ox-29" value="ALTER" style="rounded=1;whiteSpace=wrap;html=1;fontSize=16;" vertex="1" parent="1">
          <mxGeometry x="943" y="-3889" width="120" height="60" as="geometry" />
        </mxCell>
        <mxCell id="LpP1oxPUB7b7Ap5Ta2ox-30" value="DROP" style="rounded=1;whiteSpace=wrap;html=1;fontSize=16;" vertex="1" parent="1">
          <mxGeometry x="936" y="-3988" width="120" height="60" as="geometry" />
        </mxCell>
        <mxCell id="LpP1oxPUB7b7Ap5Ta2ox-31" value="INSERT" style="rounded=1;whiteSpace=wrap;html=1;fontSize=16;" vertex="1" parent="1">
          <mxGeometry x="960" y="-3578" width="120" height="60" as="geometry" />
        </mxCell>
        <mxCell id="LpP1oxPUB7b7Ap5Ta2ox-33" value="DELETE" style="rounded=1;whiteSpace=wrap;html=1;fontSize=16;" vertex="1" parent="1">
          <mxGeometry x="962.5" y="-3358" width="120" height="60" as="geometry" />
        </mxCell>
        <mxCell id="LpP1oxPUB7b7Ap5Ta2ox-34" value="UPDATE" style="rounded=1;whiteSpace=wrap;html=1;fontSize=16;" vertex="1" parent="1">
          <mxGeometry x="962.5" y="-3471" width="120" height="60" as="geometry" />
        </mxCell>
        <mxCell id="LpP1oxPUB7b7Ap5Ta2ox-35" value="SELECT" style="rounded=1;whiteSpace=wrap;html=1;fontSize=16;" vertex="1" parent="1">
          <mxGeometry x="862" y="-3153" width="120" height="60" as="geometry" />
        </mxCell>
        <mxCell id="LpP1oxPUB7b7Ap5Ta2ox-36" value="ROLLBACK" style="rounded=1;whiteSpace=wrap;html=1;fontSize=16;" vertex="1" parent="1">
          <mxGeometry x="879" y="-3037" width="120" height="60" as="geometry" />
        </mxCell>
        <mxCell id="LpP1oxPUB7b7Ap5Ta2ox-37" value="SAVEPOINT" style="rounded=1;whiteSpace=wrap;html=1;fontSize=16;" vertex="1" parent="1">
          <mxGeometry x="885" y="-2857" width="120" height="60" as="geometry" />
        </mxCell>
        <mxCell id="LpP1oxPUB7b7Ap5Ta2ox-38" value="COMMIT" style="rounded=1;whiteSpace=wrap;html=1;fontSize=16;" vertex="1" parent="1">
          <mxGeometry x="885" y="-2947" width="120" height="60" as="geometry" />
        </mxCell>
        <mxCell id="LpP1oxPUB7b7Ap5Ta2ox-42" value="GRAND" style="rounded=1;whiteSpace=wrap;html=1;fontSize=16;" vertex="1" parent="1">
          <mxGeometry x="860" y="-2760" width="120" height="60" as="geometry" />
        </mxCell>
        <mxCell id="LpP1oxPUB7b7Ap5Ta2ox-43" value="INVOKE" style="rounded=1;whiteSpace=wrap;html=1;fontSize=16;" vertex="1" parent="1">
          <mxGeometry x="860" y="-2635" width="120" height="60" as="geometry" />
        </mxCell>
        <mxCell id="LpP1oxPUB7b7Ap5Ta2ox-68" style="edgeStyle=none;curved=1;rounded=0;orthogonalLoop=1;jettySize=auto;html=1;entryX=0;entryY=0.5;entryDx=0;entryDy=0;fontSize=12;startSize=8;endSize=8;" edge="1" parent="1" source="LpP1oxPUB7b7Ap5Ta2ox-63" target="LpP1oxPUB7b7Ap5Ta2ox-66">
          <mxGeometry relative="1" as="geometry" />
        </mxCell>
        <mxCell id="LpP1oxPUB7b7Ap5Ta2ox-69" style="edgeStyle=none;curved=1;rounded=0;orthogonalLoop=1;jettySize=auto;html=1;entryX=0;entryY=0.5;entryDx=0;entryDy=0;fontSize=12;startSize=8;endSize=8;" edge="1" parent="1" source="LpP1oxPUB7b7Ap5Ta2ox-63" target="LpP1oxPUB7b7Ap5Ta2ox-67">
          <mxGeometry relative="1" as="geometry" />
        </mxCell>
        <mxCell id="LpP1oxPUB7b7Ap5Ta2ox-63" value="Công cụ" style="ellipse;whiteSpace=wrap;html=1;fontSize=16;" vertex="1" parent="1">
          <mxGeometry x="442" y="-2296" width="120" height="80" as="geometry" />
        </mxCell>
        <mxCell id="LpP1oxPUB7b7Ap5Ta2ox-64" style="edgeStyle=none;curved=1;rounded=0;orthogonalLoop=1;jettySize=auto;html=1;entryX=0.011;entryY=0.6;entryDx=0;entryDy=0;entryPerimeter=0;fontSize=12;startSize=8;endSize=8;" edge="1" parent="1" source="LpP1oxPUB7b7Ap5Ta2ox-2" target="LpP1oxPUB7b7Ap5Ta2ox-63">
          <mxGeometry relative="1" as="geometry" />
        </mxCell>
        <mxCell id="LpP1oxPUB7b7Ap5Ta2ox-65" style="edgeStyle=none;curved=1;rounded=0;orthogonalLoop=1;jettySize=auto;html=1;exitX=1;exitY=1;exitDx=0;exitDy=0;fontSize=12;startSize=8;endSize=8;" edge="1" parent="1" source="LpP1oxPUB7b7Ap5Ta2ox-63" target="LpP1oxPUB7b7Ap5Ta2ox-63">
          <mxGeometry relative="1" as="geometry" />
        </mxCell>
        <mxCell id="LpP1oxPUB7b7Ap5Ta2ox-66" value="MYSQL server có thể làm việc trên cmd, terminal" style="rounded=1;whiteSpace=wrap;html=1;fontSize=16;" vertex="1" parent="1">
          <mxGeometry x="650" y="-2350" width="375" height="60" as="geometry" />
        </mxCell>
        <mxCell id="LpP1oxPUB7b7Ap5Ta2ox-67" value="MYSQL workbench giao diện làm việc vs DB" style="rounded=1;whiteSpace=wrap;html=1;fontSize=16;" vertex="1" parent="1">
          <mxGeometry x="641" y="-2179" width="415" height="60" as="geometry" />
        </mxCell>
        <mxCell id="LpP1oxPUB7b7Ap5Ta2ox-77" style="edgeStyle=none;curved=1;rounded=0;orthogonalLoop=1;jettySize=auto;html=1;entryX=0;entryY=0;entryDx=0;entryDy=0;fontSize=12;startSize=8;endSize=8;" edge="1" parent="1" source="LpP1oxPUB7b7Ap5Ta2ox-76" target="LpP1oxPUB7b7Ap5Ta2ox-19">
          <mxGeometry relative="1" as="geometry" />
        </mxCell>
        <mxCell id="LpP1oxPUB7b7Ap5Ta2ox-76" value="Phân biệt truncate vs delete?" style="rounded=0;whiteSpace=wrap;html=1;fontSize=16;fillColor=#fff2cc;strokeColor=#d6b656;" vertex="1" parent="1">
          <mxGeometry x="70" y="-3116" width="287" height="60" as="geometry" />
        </mxCell>
        <mxCell id="LpP1oxPUB7b7Ap5Ta2ox-93" style="edgeStyle=none;curved=1;rounded=0;orthogonalLoop=1;jettySize=auto;html=1;entryX=0;entryY=0.5;entryDx=0;entryDy=0;fontSize=12;startSize=8;endSize=8;" edge="1" parent="1" source="LpP1oxPUB7b7Ap5Ta2ox-78" target="LpP1oxPUB7b7Ap5Ta2ox-79">
          <mxGeometry relative="1" as="geometry" />
        </mxCell>
        <mxCell id="LpP1oxPUB7b7Ap5Ta2ox-94" style="edgeStyle=none;curved=1;rounded=0;orthogonalLoop=1;jettySize=auto;html=1;entryX=0;entryY=0.5;entryDx=0;entryDy=0;fontSize=12;startSize=8;endSize=8;" edge="1" parent="1" source="LpP1oxPUB7b7Ap5Ta2ox-78" target="LpP1oxPUB7b7Ap5Ta2ox-82">
          <mxGeometry relative="1" as="geometry" />
        </mxCell>
        <mxCell id="LpP1oxPUB7b7Ap5Ta2ox-95" style="edgeStyle=none;curved=1;rounded=0;orthogonalLoop=1;jettySize=auto;html=1;entryX=0;entryY=0.5;entryDx=0;entryDy=0;fontSize=12;startSize=8;endSize=8;" edge="1" parent="1" source="LpP1oxPUB7b7Ap5Ta2ox-78" target="LpP1oxPUB7b7Ap5Ta2ox-85">
          <mxGeometry relative="1" as="geometry" />
        </mxCell>
        <mxCell id="LpP1oxPUB7b7Ap5Ta2ox-78" value="Thiết kế cơ sở dữ liệu quan hệ" style="ellipse;whiteSpace=wrap;html=1;fontSize=16;" vertex="1" parent="1">
          <mxGeometry x="507" y="-1102" width="155" height="94" as="geometry" />
        </mxCell>
        <mxCell id="LpP1oxPUB7b7Ap5Ta2ox-97" style="edgeStyle=none;curved=1;rounded=0;orthogonalLoop=1;jettySize=auto;html=1;entryX=0;entryY=0.5;entryDx=0;entryDy=0;fontSize=12;startSize=8;endSize=8;" edge="1" parent="1" source="LpP1oxPUB7b7Ap5Ta2ox-79" target="LpP1oxPUB7b7Ap5Ta2ox-80">
          <mxGeometry relative="1" as="geometry" />
        </mxCell>
        <mxCell id="LpP1oxPUB7b7Ap5Ta2ox-98" style="edgeStyle=none;curved=1;rounded=0;orthogonalLoop=1;jettySize=auto;html=1;entryX=0;entryY=0.5;entryDx=0;entryDy=0;fontSize=12;startSize=8;endSize=8;" edge="1" parent="1" source="LpP1oxPUB7b7Ap5Ta2ox-79" target="LpP1oxPUB7b7Ap5Ta2ox-81">
          <mxGeometry relative="1" as="geometry" />
        </mxCell>
        <mxCell id="LpP1oxPUB7b7Ap5Ta2ox-79" value="1/ Xác định yêu cầu" style="rounded=1;whiteSpace=wrap;html=1;fontSize=16;" vertex="1" parent="1">
          <mxGeometry x="801" y="-1220" width="173" height="68" as="geometry" />
        </mxCell>
        <mxCell id="LpP1oxPUB7b7Ap5Ta2ox-80" value="HIểu yêu cầu hệ thống" style="rounded=1;whiteSpace=wrap;html=1;fontSize=16;" vertex="1" parent="1">
          <mxGeometry x="1068" y="-1280" width="173" height="68" as="geometry" />
        </mxCell>
        <mxCell id="LpP1oxPUB7b7Ap5Ta2ox-81" value="Xác định đối tượng chính&lt;br&gt;ví dụ: khách hàng, sản phẩm, đơn hàng..." style="rounded=1;whiteSpace=wrap;html=1;fontSize=16;" vertex="1" parent="1">
          <mxGeometry x="1068" y="-1165" width="309" height="68" as="geometry" />
        </mxCell>
        <mxCell id="LpP1oxPUB7b7Ap5Ta2ox-99" style="edgeStyle=none;curved=1;rounded=0;orthogonalLoop=1;jettySize=auto;html=1;entryX=0;entryY=0.5;entryDx=0;entryDy=0;fontSize=12;startSize=8;endSize=8;" edge="1" parent="1" source="LpP1oxPUB7b7Ap5Ta2ox-82" target="LpP1oxPUB7b7Ap5Ta2ox-83">
          <mxGeometry relative="1" as="geometry" />
        </mxCell>
        <mxCell id="LpP1oxPUB7b7Ap5Ta2ox-100" style="edgeStyle=none;curved=1;rounded=0;orthogonalLoop=1;jettySize=auto;html=1;entryX=0;entryY=0.5;entryDx=0;entryDy=0;fontSize=12;startSize=8;endSize=8;" edge="1" parent="1" source="LpP1oxPUB7b7Ap5Ta2ox-82" target="LpP1oxPUB7b7Ap5Ta2ox-84">
          <mxGeometry relative="1" as="geometry" />
        </mxCell>
        <mxCell id="LpP1oxPUB7b7Ap5Ta2ox-82" value="2/ Xác định thực thể và thuộc tính" style="rounded=1;whiteSpace=wrap;html=1;fontSize=16;" vertex="1" parent="1">
          <mxGeometry x="788.5" y="-969" width="261" height="68" as="geometry" />
        </mxCell>
        <mxCell id="LpP1oxPUB7b7Ap5Ta2ox-83" value="Mỗi thực thể là 1 bảng trong table" style="rounded=1;whiteSpace=wrap;html=1;fontSize=16;" vertex="1" parent="1">
          <mxGeometry x="1148" y="-1018" width="301" height="68" as="geometry" />
        </mxCell>
        <mxCell id="LpP1oxPUB7b7Ap5Ta2ox-84" value="thuộc tính tương đương các cột trong table&lt;br&gt;vd: thực thể khách hàng có thuộc tính mã khách hàng, tên, sđt....." style="rounded=1;whiteSpace=wrap;html=1;fontSize=16;" vertex="1" parent="1">
          <mxGeometry x="1146" y="-914" width="487" height="73" as="geometry" />
        </mxCell>
        <mxCell id="zwavNh4G8JBNGArCNSkA-2" style="edgeStyle=none;curved=1;rounded=0;orthogonalLoop=1;jettySize=auto;html=1;entryX=0;entryY=0.5;entryDx=0;entryDy=0;fontSize=12;startSize=8;endSize=8;" edge="1" parent="1" source="LpP1oxPUB7b7Ap5Ta2ox-85" target="LpP1oxPUB7b7Ap5Ta2ox-86">
          <mxGeometry relative="1" as="geometry" />
        </mxCell>
        <mxCell id="zwavNh4G8JBNGArCNSkA-3" style="edgeStyle=none;curved=1;rounded=0;orthogonalLoop=1;jettySize=auto;html=1;entryX=0;entryY=0.5;entryDx=0;entryDy=0;fontSize=12;startSize=8;endSize=8;" edge="1" parent="1" source="LpP1oxPUB7b7Ap5Ta2ox-85" target="LpP1oxPUB7b7Ap5Ta2ox-87">
          <mxGeometry relative="1" as="geometry" />
        </mxCell>
        <mxCell id="LpP1oxPUB7b7Ap5Ta2ox-85" value="3/ Xác định khóa chính (PRIMARY KEY), khóa ngoại (FOREIGN KEY)" style="rounded=1;whiteSpace=wrap;html=1;fontSize=16;" vertex="1" parent="1">
          <mxGeometry x="795" y="-745" width="519" height="68" as="geometry" />
        </mxCell>
        <mxCell id="LpP1oxPUB7b7Ap5Ta2ox-86" value="Khóa chính&lt;br&gt;là thuộc tính duy nhất xác định 1 đối tượng trong bảng&lt;br&gt;vd:&amp;nbsp;CustomerID là khóa chính của bảng khách hàng" style="rounded=1;whiteSpace=wrap;html=1;fontSize=16;" vertex="1" parent="1">
          <mxGeometry x="1512" y="-819" width="521" height="73" as="geometry" />
        </mxCell>
        <mxCell id="LpP1oxPUB7b7Ap5Ta2ox-87" value="Khóa ngoại&lt;br&gt;là thuộc tính 1 bảng, tham chiếu đến khóa chính của bảng khác&lt;br&gt;=&amp;gt; liên kết các bảng vs nhau&lt;br&gt;vd: Order có thuộc tính CustomerID&amp;nbsp;là khóa ngoại liên kết đến bảng khách hàng" style="rounded=1;whiteSpace=wrap;html=1;fontSize=16;" vertex="1" parent="1">
          <mxGeometry x="1512" y="-707" width="673" height="110" as="geometry" />
        </mxCell>
        <mxCell id="zwavNh4G8JBNGArCNSkA-4" style="edgeStyle=none;curved=1;rounded=0;orthogonalLoop=1;jettySize=auto;html=1;entryX=0;entryY=0.5;entryDx=0;entryDy=0;fontSize=12;startSize=8;endSize=8;" edge="1" parent="1" source="LpP1oxPUB7b7Ap5Ta2ox-88" target="LpP1oxPUB7b7Ap5Ta2ox-90">
          <mxGeometry relative="1" as="geometry" />
        </mxCell>
        <mxCell id="zwavNh4G8JBNGArCNSkA-5" style="edgeStyle=none;curved=1;rounded=0;orthogonalLoop=1;jettySize=auto;html=1;entryX=0;entryY=0.5;entryDx=0;entryDy=0;fontSize=12;startSize=8;endSize=8;" edge="1" parent="1" source="LpP1oxPUB7b7Ap5Ta2ox-88" target="LpP1oxPUB7b7Ap5Ta2ox-91">
          <mxGeometry relative="1" as="geometry" />
        </mxCell>
        <mxCell id="zwavNh4G8JBNGArCNSkA-6" style="edgeStyle=none;curved=1;rounded=0;orthogonalLoop=1;jettySize=auto;html=1;entryX=0;entryY=0.5;entryDx=0;entryDy=0;fontSize=12;startSize=8;endSize=8;" edge="1" parent="1" source="LpP1oxPUB7b7Ap5Ta2ox-88" target="LpP1oxPUB7b7Ap5Ta2ox-92">
          <mxGeometry relative="1" as="geometry" />
        </mxCell>
        <mxCell id="LpP1oxPUB7b7Ap5Ta2ox-88" value="4/ Xác định các mối quan hệ" style="rounded=1;whiteSpace=wrap;html=1;fontSize=16;" vertex="1" parent="1">
          <mxGeometry x="784" y="-476" width="279" height="68" as="geometry" />
        </mxCell>
        <mxCell id="LpP1oxPUB7b7Ap5Ta2ox-90" value="one-to-one&lt;br&gt;1 bảng ghi bảng A liên kết 1 bảng ghi bảng B&lt;br&gt;vd: 1 người có 1 cccd" style="rounded=1;whiteSpace=wrap;html=1;fontSize=16;" vertex="1" parent="1">
          <mxGeometry x="1342" y="-558" width="521" height="73" as="geometry" />
        </mxCell>
        <mxCell id="LpP1oxPUB7b7Ap5Ta2ox-91" value="one-to-many&lt;br&gt;1 bảng ghi bảng A có thể liên kết nhiều bảng ghi bảng B, nhưng mỗi bảng ghi bảng B chỉ liên kết 1 bảng ghi bảng A&lt;br&gt;vd: mỗi khách hàng đặt nhiều đơn hàng, nhưng mỗi đơn hàng chỉ thuộc 1 khách hàng" style="rounded=1;whiteSpace=wrap;html=1;fontSize=16;" vertex="1" parent="1">
          <mxGeometry x="1352" y="-461.5" width="632" height="73" as="geometry" />
        </mxCell>
        <mxCell id="LpP1oxPUB7b7Ap5Ta2ox-92" value="many-to-many&lt;br&gt;nhiều bảng ghi bảng A liên kết nhiều bảng ghi bảng B và ngược lại&lt;br&gt;&lt;font color=&quot;#ff0000&quot;&gt;mối quan hệ này thường đc chia thành 2 mối quan hệ one-to-many thông qua 1 bảng trung gian&lt;br&gt;&lt;/font&gt;vd: học sinh học nhiều môn học, mỗi môn học có nhiều học sinh" style="rounded=1;whiteSpace=wrap;html=1;fontSize=16;" vertex="1" parent="1">
          <mxGeometry x="1349" y="-352" width="521" height="124" as="geometry" />
        </mxCell>
        <mxCell id="LpP1oxPUB7b7Ap5Ta2ox-96" style="edgeStyle=none;curved=1;rounded=0;orthogonalLoop=1;jettySize=auto;html=1;entryX=0.005;entryY=0.602;entryDx=0;entryDy=0;entryPerimeter=0;fontSize=12;startSize=8;endSize=8;" edge="1" parent="1" source="LpP1oxPUB7b7Ap5Ta2ox-78" target="LpP1oxPUB7b7Ap5Ta2ox-88">
          <mxGeometry relative="1" as="geometry" />
        </mxCell>
        <mxCell id="zwavNh4G8JBNGArCNSkA-1" style="edgeStyle=none;curved=1;rounded=0;orthogonalLoop=1;jettySize=auto;html=1;entryX=0.03;entryY=0.766;entryDx=0;entryDy=0;entryPerimeter=0;fontSize=12;startSize=8;endSize=8;" edge="1" parent="1" source="LpP1oxPUB7b7Ap5Ta2ox-2" target="LpP1oxPUB7b7Ap5Ta2ox-78">
          <mxGeometry relative="1" as="geometry" />
        </mxCell>
      </root>
    </mxGraphModel>
  </diagram>
  <diagram id="YL-zHW-2jFYsNq-eb4G0" name="Page-2">
    <mxGraphModel dx="1386" dy="1411" grid="0" gridSize="10" guides="1" tooltips="1" connect="1" arrows="1" fold="1" page="0" pageScale="1" pageWidth="827" pageHeight="1169" math="0" shadow="0">
      <root>
        <mxCell id="0" />
        <mxCell id="1" parent="0" />
        <mxCell id="yjzS7AacyfTG5GW3nVSh-1" value="ChuongTrinhDaoTao" style="shape=table;startSize=30;container=1;collapsible=1;childLayout=tableLayout;fixedRows=1;rowLines=0;fontStyle=1;align=center;resizeLast=1;html=1;fontSize=16;" vertex="1" parent="1">
          <mxGeometry x="93" y="-6" width="236" height="150" as="geometry" />
        </mxCell>
        <mxCell id="yjzS7AacyfTG5GW3nVSh-2" value="" style="shape=tableRow;horizontal=0;startSize=0;swimlaneHead=0;swimlaneBody=0;fillColor=none;collapsible=0;dropTarget=0;points=[[0,0.5],[1,0.5]];portConstraint=eastwest;top=0;left=0;right=0;bottom=1;fontSize=16;" vertex="1" parent="yjzS7AacyfTG5GW3nVSh-1">
          <mxGeometry y="30" width="236" height="30" as="geometry" />
        </mxCell>
        <mxCell id="yjzS7AacyfTG5GW3nVSh-3" value="PK" style="shape=partialRectangle;connectable=0;fillColor=none;top=0;left=0;bottom=0;right=0;fontStyle=1;overflow=hidden;whiteSpace=wrap;html=1;fontSize=16;" vertex="1" parent="yjzS7AacyfTG5GW3nVSh-2">
          <mxGeometry width="30" height="30" as="geometry">
            <mxRectangle width="30" height="30" as="alternateBounds" />
          </mxGeometry>
        </mxCell>
        <mxCell id="yjzS7AacyfTG5GW3nVSh-4" value="maChuongTrinhDaoTao" style="shape=partialRectangle;connectable=0;fillColor=none;top=0;left=0;bottom=0;right=0;align=left;spacingLeft=6;fontStyle=5;overflow=hidden;whiteSpace=wrap;html=1;fontSize=16;" vertex="1" parent="yjzS7AacyfTG5GW3nVSh-2">
          <mxGeometry x="30" width="206" height="30" as="geometry">
            <mxRectangle width="206" height="30" as="alternateBounds" />
          </mxGeometry>
        </mxCell>
        <mxCell id="yjzS7AacyfTG5GW3nVSh-5" value="" style="shape=tableRow;horizontal=0;startSize=0;swimlaneHead=0;swimlaneBody=0;fillColor=none;collapsible=0;dropTarget=0;points=[[0,0.5],[1,0.5]];portConstraint=eastwest;top=0;left=0;right=0;bottom=0;fontSize=16;" vertex="1" parent="yjzS7AacyfTG5GW3nVSh-1">
          <mxGeometry y="60" width="236" height="30" as="geometry" />
        </mxCell>
        <mxCell id="yjzS7AacyfTG5GW3nVSh-6" value="" style="shape=partialRectangle;connectable=0;fillColor=none;top=0;left=0;bottom=0;right=0;editable=1;overflow=hidden;whiteSpace=wrap;html=1;fontSize=16;" vertex="1" parent="yjzS7AacyfTG5GW3nVSh-5">
          <mxGeometry width="30" height="30" as="geometry">
            <mxRectangle width="30" height="30" as="alternateBounds" />
          </mxGeometry>
        </mxCell>
        <mxCell id="yjzS7AacyfTG5GW3nVSh-7" value="tenChuongTrinh" style="shape=partialRectangle;connectable=0;fillColor=none;top=0;left=0;bottom=0;right=0;align=left;spacingLeft=6;overflow=hidden;whiteSpace=wrap;html=1;fontSize=16;" vertex="1" parent="yjzS7AacyfTG5GW3nVSh-5">
          <mxGeometry x="30" width="206" height="30" as="geometry">
            <mxRectangle width="206" height="30" as="alternateBounds" />
          </mxGeometry>
        </mxCell>
        <mxCell id="yjzS7AacyfTG5GW3nVSh-8" value="" style="shape=tableRow;horizontal=0;startSize=0;swimlaneHead=0;swimlaneBody=0;fillColor=none;collapsible=0;dropTarget=0;points=[[0,0.5],[1,0.5]];portConstraint=eastwest;top=0;left=0;right=0;bottom=0;fontSize=16;" vertex="1" parent="yjzS7AacyfTG5GW3nVSh-1">
          <mxGeometry y="90" width="236" height="30" as="geometry" />
        </mxCell>
        <mxCell id="yjzS7AacyfTG5GW3nVSh-9" value="" style="shape=partialRectangle;connectable=0;fillColor=none;top=0;left=0;bottom=0;right=0;editable=1;overflow=hidden;whiteSpace=wrap;html=1;fontSize=16;" vertex="1" parent="yjzS7AacyfTG5GW3nVSh-8">
          <mxGeometry width="30" height="30" as="geometry">
            <mxRectangle width="30" height="30" as="alternateBounds" />
          </mxGeometry>
        </mxCell>
        <mxCell id="yjzS7AacyfTG5GW3nVSh-10" value="soTinhChi" style="shape=partialRectangle;connectable=0;fillColor=none;top=0;left=0;bottom=0;right=0;align=left;spacingLeft=6;overflow=hidden;whiteSpace=wrap;html=1;fontSize=16;" vertex="1" parent="yjzS7AacyfTG5GW3nVSh-8">
          <mxGeometry x="30" width="206" height="30" as="geometry">
            <mxRectangle width="206" height="30" as="alternateBounds" />
          </mxGeometry>
        </mxCell>
        <mxCell id="yjzS7AacyfTG5GW3nVSh-11" value="" style="shape=tableRow;horizontal=0;startSize=0;swimlaneHead=0;swimlaneBody=0;fillColor=none;collapsible=0;dropTarget=0;points=[[0,0.5],[1,0.5]];portConstraint=eastwest;top=0;left=0;right=0;bottom=0;fontSize=16;" vertex="1" parent="yjzS7AacyfTG5GW3nVSh-1">
          <mxGeometry y="120" width="236" height="30" as="geometry" />
        </mxCell>
        <mxCell id="yjzS7AacyfTG5GW3nVSh-12" value="" style="shape=partialRectangle;connectable=0;fillColor=none;top=0;left=0;bottom=0;right=0;editable=1;overflow=hidden;whiteSpace=wrap;html=1;fontSize=16;" vertex="1" parent="yjzS7AacyfTG5GW3nVSh-11">
          <mxGeometry width="30" height="30" as="geometry">
            <mxRectangle width="30" height="30" as="alternateBounds" />
          </mxGeometry>
        </mxCell>
        <mxCell id="yjzS7AacyfTG5GW3nVSh-13" value="namBatDau" style="shape=partialRectangle;connectable=0;fillColor=none;top=0;left=0;bottom=0;right=0;align=left;spacingLeft=6;overflow=hidden;whiteSpace=wrap;html=1;fontSize=16;" vertex="1" parent="yjzS7AacyfTG5GW3nVSh-11">
          <mxGeometry x="30" width="206" height="30" as="geometry">
            <mxRectangle width="206" height="30" as="alternateBounds" />
          </mxGeometry>
        </mxCell>
        <mxCell id="yjzS7AacyfTG5GW3nVSh-21" value="SinhVien" style="shape=table;startSize=30;container=1;collapsible=1;childLayout=tableLayout;fixedRows=1;rowLines=0;fontStyle=1;align=center;resizeLast=1;html=1;fontSize=16;" vertex="1" parent="1">
          <mxGeometry x="466" y="-54" width="254" height="210" as="geometry" />
        </mxCell>
        <mxCell id="yjzS7AacyfTG5GW3nVSh-22" value="" style="shape=tableRow;horizontal=0;startSize=0;swimlaneHead=0;swimlaneBody=0;fillColor=none;collapsible=0;dropTarget=0;points=[[0,0.5],[1,0.5]];portConstraint=eastwest;top=0;left=0;right=0;bottom=1;fontSize=16;" vertex="1" parent="yjzS7AacyfTG5GW3nVSh-21">
          <mxGeometry y="30" width="254" height="30" as="geometry" />
        </mxCell>
        <mxCell id="yjzS7AacyfTG5GW3nVSh-23" value="PK" style="shape=partialRectangle;connectable=0;fillColor=none;top=0;left=0;bottom=0;right=0;fontStyle=1;overflow=hidden;whiteSpace=wrap;html=1;fontSize=16;" vertex="1" parent="yjzS7AacyfTG5GW3nVSh-22">
          <mxGeometry width="30" height="30" as="geometry">
            <mxRectangle width="30" height="30" as="alternateBounds" />
          </mxGeometry>
        </mxCell>
        <mxCell id="yjzS7AacyfTG5GW3nVSh-24" value="maSinhVien" style="shape=partialRectangle;connectable=0;fillColor=none;top=0;left=0;bottom=0;right=0;align=left;spacingLeft=6;fontStyle=5;overflow=hidden;whiteSpace=wrap;html=1;fontSize=16;" vertex="1" parent="yjzS7AacyfTG5GW3nVSh-22">
          <mxGeometry x="30" width="224" height="30" as="geometry">
            <mxRectangle width="224" height="30" as="alternateBounds" />
          </mxGeometry>
        </mxCell>
        <mxCell id="yjzS7AacyfTG5GW3nVSh-25" value="" style="shape=tableRow;horizontal=0;startSize=0;swimlaneHead=0;swimlaneBody=0;fillColor=none;collapsible=0;dropTarget=0;points=[[0,0.5],[1,0.5]];portConstraint=eastwest;top=0;left=0;right=0;bottom=0;fontSize=16;" vertex="1" parent="yjzS7AacyfTG5GW3nVSh-21">
          <mxGeometry y="60" width="254" height="30" as="geometry" />
        </mxCell>
        <mxCell id="yjzS7AacyfTG5GW3nVSh-26" value="" style="shape=partialRectangle;connectable=0;fillColor=none;top=0;left=0;bottom=0;right=0;editable=1;overflow=hidden;whiteSpace=wrap;html=1;fontSize=16;" vertex="1" parent="yjzS7AacyfTG5GW3nVSh-25">
          <mxGeometry width="30" height="30" as="geometry">
            <mxRectangle width="30" height="30" as="alternateBounds" />
          </mxGeometry>
        </mxCell>
        <mxCell id="yjzS7AacyfTG5GW3nVSh-27" value="hoDem" style="shape=partialRectangle;connectable=0;fillColor=none;top=0;left=0;bottom=0;right=0;align=left;spacingLeft=6;overflow=hidden;whiteSpace=wrap;html=1;fontSize=16;" vertex="1" parent="yjzS7AacyfTG5GW3nVSh-25">
          <mxGeometry x="30" width="224" height="30" as="geometry">
            <mxRectangle width="224" height="30" as="alternateBounds" />
          </mxGeometry>
        </mxCell>
        <mxCell id="yjzS7AacyfTG5GW3nVSh-28" value="" style="shape=tableRow;horizontal=0;startSize=0;swimlaneHead=0;swimlaneBody=0;fillColor=none;collapsible=0;dropTarget=0;points=[[0,0.5],[1,0.5]];portConstraint=eastwest;top=0;left=0;right=0;bottom=0;fontSize=16;" vertex="1" parent="yjzS7AacyfTG5GW3nVSh-21">
          <mxGeometry y="90" width="254" height="30" as="geometry" />
        </mxCell>
        <mxCell id="yjzS7AacyfTG5GW3nVSh-29" value="" style="shape=partialRectangle;connectable=0;fillColor=none;top=0;left=0;bottom=0;right=0;editable=1;overflow=hidden;whiteSpace=wrap;html=1;fontSize=16;" vertex="1" parent="yjzS7AacyfTG5GW3nVSh-28">
          <mxGeometry width="30" height="30" as="geometry">
            <mxRectangle width="30" height="30" as="alternateBounds" />
          </mxGeometry>
        </mxCell>
        <mxCell id="yjzS7AacyfTG5GW3nVSh-30" value="ten" style="shape=partialRectangle;connectable=0;fillColor=none;top=0;left=0;bottom=0;right=0;align=left;spacingLeft=6;overflow=hidden;whiteSpace=wrap;html=1;fontSize=16;" vertex="1" parent="yjzS7AacyfTG5GW3nVSh-28">
          <mxGeometry x="30" width="224" height="30" as="geometry">
            <mxRectangle width="224" height="30" as="alternateBounds" />
          </mxGeometry>
        </mxCell>
        <mxCell id="yjzS7AacyfTG5GW3nVSh-31" value="" style="shape=tableRow;horizontal=0;startSize=0;swimlaneHead=0;swimlaneBody=0;fillColor=none;collapsible=0;dropTarget=0;points=[[0,0.5],[1,0.5]];portConstraint=eastwest;top=0;left=0;right=0;bottom=0;fontSize=16;" vertex="1" parent="yjzS7AacyfTG5GW3nVSh-21">
          <mxGeometry y="120" width="254" height="30" as="geometry" />
        </mxCell>
        <mxCell id="yjzS7AacyfTG5GW3nVSh-32" value="" style="shape=partialRectangle;connectable=0;fillColor=none;top=0;left=0;bottom=0;right=0;editable=1;overflow=hidden;whiteSpace=wrap;html=1;fontSize=16;" vertex="1" parent="yjzS7AacyfTG5GW3nVSh-31">
          <mxGeometry width="30" height="30" as="geometry">
            <mxRectangle width="30" height="30" as="alternateBounds" />
          </mxGeometry>
        </mxCell>
        <mxCell id="yjzS7AacyfTG5GW3nVSh-33" value="ngaySinh" style="shape=partialRectangle;connectable=0;fillColor=none;top=0;left=0;bottom=0;right=0;align=left;spacingLeft=6;overflow=hidden;whiteSpace=wrap;html=1;fontSize=16;" vertex="1" parent="yjzS7AacyfTG5GW3nVSh-31">
          <mxGeometry x="30" width="224" height="30" as="geometry">
            <mxRectangle width="224" height="30" as="alternateBounds" />
          </mxGeometry>
        </mxCell>
        <mxCell id="yjzS7AacyfTG5GW3nVSh-34" value="" style="shape=tableRow;horizontal=0;startSize=0;swimlaneHead=0;swimlaneBody=0;fillColor=none;collapsible=0;dropTarget=0;points=[[0,0.5],[1,0.5]];portConstraint=eastwest;top=0;left=0;right=0;bottom=0;fontSize=16;" vertex="1" parent="yjzS7AacyfTG5GW3nVSh-21">
          <mxGeometry y="150" width="254" height="30" as="geometry" />
        </mxCell>
        <mxCell id="yjzS7AacyfTG5GW3nVSh-35" value="" style="shape=partialRectangle;connectable=0;fillColor=none;top=0;left=0;bottom=0;right=0;editable=1;overflow=hidden;whiteSpace=wrap;html=1;fontSize=16;" vertex="1" parent="yjzS7AacyfTG5GW3nVSh-34">
          <mxGeometry width="30" height="30" as="geometry">
            <mxRectangle width="30" height="30" as="alternateBounds" />
          </mxGeometry>
        </mxCell>
        <mxCell id="yjzS7AacyfTG5GW3nVSh-36" value="namNhapHoc" style="shape=partialRectangle;connectable=0;fillColor=none;top=0;left=0;bottom=0;right=0;align=left;spacingLeft=6;overflow=hidden;whiteSpace=wrap;html=1;fontSize=16;" vertex="1" parent="yjzS7AacyfTG5GW3nVSh-34">
          <mxGeometry x="30" width="224" height="30" as="geometry">
            <mxRectangle width="224" height="30" as="alternateBounds" />
          </mxGeometry>
        </mxCell>
        <mxCell id="yjzS7AacyfTG5GW3nVSh-37" value="" style="shape=tableRow;horizontal=0;startSize=0;swimlaneHead=0;swimlaneBody=0;fillColor=none;collapsible=0;dropTarget=0;points=[[0,0.5],[1,0.5]];portConstraint=eastwest;top=0;left=0;right=0;bottom=0;fontSize=16;" vertex="1" parent="yjzS7AacyfTG5GW3nVSh-21">
          <mxGeometry y="180" width="254" height="30" as="geometry" />
        </mxCell>
        <mxCell id="yjzS7AacyfTG5GW3nVSh-38" value="FK" style="shape=partialRectangle;connectable=0;fillColor=none;top=0;left=0;bottom=0;right=0;editable=1;overflow=hidden;whiteSpace=wrap;html=1;fontSize=16;" vertex="1" parent="yjzS7AacyfTG5GW3nVSh-37">
          <mxGeometry width="30" height="30" as="geometry">
            <mxRectangle width="30" height="30" as="alternateBounds" />
          </mxGeometry>
        </mxCell>
        <mxCell id="yjzS7AacyfTG5GW3nVSh-39" value="maChuongTrinhDaoTao" style="shape=partialRectangle;connectable=0;fillColor=none;top=0;left=0;bottom=0;right=0;align=left;spacingLeft=6;overflow=hidden;whiteSpace=wrap;html=1;fontSize=16;" vertex="1" parent="yjzS7AacyfTG5GW3nVSh-37">
          <mxGeometry x="30" width="224" height="30" as="geometry">
            <mxRectangle width="224" height="30" as="alternateBounds" />
          </mxGeometry>
        </mxCell>
        <mxCell id="yjzS7AacyfTG5GW3nVSh-40" value="" style="fontSize=12;html=1;endArrow=ERoneToMany;rounded=0;startSize=8;endSize=8;exitX=1;exitY=0.5;exitDx=0;exitDy=0;entryX=0;entryY=0.5;entryDx=0;entryDy=0;edgeStyle=orthogonalEdgeStyle;" edge="1" parent="1" source="yjzS7AacyfTG5GW3nVSh-2" target="yjzS7AacyfTG5GW3nVSh-37">
          <mxGeometry width="100" height="100" relative="1" as="geometry">
            <mxPoint x="353" y="149" as="sourcePoint" />
            <mxPoint x="453" y="49" as="targetPoint" />
          </mxGeometry>
        </mxCell>
        <mxCell id="yjzS7AacyfTG5GW3nVSh-41" value="LopHocPhan" style="shape=table;startSize=30;container=1;collapsible=1;childLayout=tableLayout;fixedRows=1;rowLines=0;fontStyle=1;align=center;resizeLast=1;html=1;fontSize=16;" vertex="1" parent="1">
          <mxGeometry x="75" y="-396" width="254" height="240" as="geometry" />
        </mxCell>
        <mxCell id="yjzS7AacyfTG5GW3nVSh-42" value="" style="shape=tableRow;horizontal=0;startSize=0;swimlaneHead=0;swimlaneBody=0;fillColor=none;collapsible=0;dropTarget=0;points=[[0,0.5],[1,0.5]];portConstraint=eastwest;top=0;left=0;right=0;bottom=1;fontSize=16;" vertex="1" parent="yjzS7AacyfTG5GW3nVSh-41">
          <mxGeometry y="30" width="254" height="30" as="geometry" />
        </mxCell>
        <mxCell id="yjzS7AacyfTG5GW3nVSh-43" value="PK" style="shape=partialRectangle;connectable=0;fillColor=none;top=0;left=0;bottom=0;right=0;fontStyle=1;overflow=hidden;whiteSpace=wrap;html=1;fontSize=16;" vertex="1" parent="yjzS7AacyfTG5GW3nVSh-42">
          <mxGeometry width="30" height="30" as="geometry">
            <mxRectangle width="30" height="30" as="alternateBounds" />
          </mxGeometry>
        </mxCell>
        <mxCell id="yjzS7AacyfTG5GW3nVSh-44" value="maHocPhan" style="shape=partialRectangle;connectable=0;fillColor=none;top=0;left=0;bottom=0;right=0;align=left;spacingLeft=6;fontStyle=5;overflow=hidden;whiteSpace=wrap;html=1;fontSize=16;" vertex="1" parent="yjzS7AacyfTG5GW3nVSh-42">
          <mxGeometry x="30" width="224" height="30" as="geometry">
            <mxRectangle width="224" height="30" as="alternateBounds" />
          </mxGeometry>
        </mxCell>
        <mxCell id="yjzS7AacyfTG5GW3nVSh-45" value="" style="shape=tableRow;horizontal=0;startSize=0;swimlaneHead=0;swimlaneBody=0;fillColor=none;collapsible=0;dropTarget=0;points=[[0,0.5],[1,0.5]];portConstraint=eastwest;top=0;left=0;right=0;bottom=0;fontSize=16;" vertex="1" parent="yjzS7AacyfTG5GW3nVSh-41">
          <mxGeometry y="60" width="254" height="30" as="geometry" />
        </mxCell>
        <mxCell id="yjzS7AacyfTG5GW3nVSh-46" value="" style="shape=partialRectangle;connectable=0;fillColor=none;top=0;left=0;bottom=0;right=0;editable=1;overflow=hidden;whiteSpace=wrap;html=1;fontSize=16;" vertex="1" parent="yjzS7AacyfTG5GW3nVSh-45">
          <mxGeometry width="30" height="30" as="geometry">
            <mxRectangle width="30" height="30" as="alternateBounds" />
          </mxGeometry>
        </mxCell>
        <mxCell id="yjzS7AacyfTG5GW3nVSh-47" value="hoDem" style="shape=partialRectangle;connectable=0;fillColor=none;top=0;left=0;bottom=0;right=0;align=left;spacingLeft=6;overflow=hidden;whiteSpace=wrap;html=1;fontSize=16;" vertex="1" parent="yjzS7AacyfTG5GW3nVSh-45">
          <mxGeometry x="30" width="224" height="30" as="geometry">
            <mxRectangle width="224" height="30" as="alternateBounds" />
          </mxGeometry>
        </mxCell>
        <mxCell id="yjzS7AacyfTG5GW3nVSh-48" value="" style="shape=tableRow;horizontal=0;startSize=0;swimlaneHead=0;swimlaneBody=0;fillColor=none;collapsible=0;dropTarget=0;points=[[0,0.5],[1,0.5]];portConstraint=eastwest;top=0;left=0;right=0;bottom=0;fontSize=16;" vertex="1" parent="yjzS7AacyfTG5GW3nVSh-41">
          <mxGeometry y="90" width="254" height="30" as="geometry" />
        </mxCell>
        <mxCell id="yjzS7AacyfTG5GW3nVSh-49" value="" style="shape=partialRectangle;connectable=0;fillColor=none;top=0;left=0;bottom=0;right=0;editable=1;overflow=hidden;whiteSpace=wrap;html=1;fontSize=16;" vertex="1" parent="yjzS7AacyfTG5GW3nVSh-48">
          <mxGeometry width="30" height="30" as="geometry">
            <mxRectangle width="30" height="30" as="alternateBounds" />
          </mxGeometry>
        </mxCell>
        <mxCell id="yjzS7AacyfTG5GW3nVSh-50" value="ten" style="shape=partialRectangle;connectable=0;fillColor=none;top=0;left=0;bottom=0;right=0;align=left;spacingLeft=6;overflow=hidden;whiteSpace=wrap;html=1;fontSize=16;" vertex="1" parent="yjzS7AacyfTG5GW3nVSh-48">
          <mxGeometry x="30" width="224" height="30" as="geometry">
            <mxRectangle width="224" height="30" as="alternateBounds" />
          </mxGeometry>
        </mxCell>
        <mxCell id="yjzS7AacyfTG5GW3nVSh-51" value="" style="shape=tableRow;horizontal=0;startSize=0;swimlaneHead=0;swimlaneBody=0;fillColor=none;collapsible=0;dropTarget=0;points=[[0,0.5],[1,0.5]];portConstraint=eastwest;top=0;left=0;right=0;bottom=0;fontSize=16;" vertex="1" parent="yjzS7AacyfTG5GW3nVSh-41">
          <mxGeometry y="120" width="254" height="30" as="geometry" />
        </mxCell>
        <mxCell id="yjzS7AacyfTG5GW3nVSh-52" value="" style="shape=partialRectangle;connectable=0;fillColor=none;top=0;left=0;bottom=0;right=0;editable=1;overflow=hidden;whiteSpace=wrap;html=1;fontSize=16;" vertex="1" parent="yjzS7AacyfTG5GW3nVSh-51">
          <mxGeometry width="30" height="30" as="geometry">
            <mxRectangle width="30" height="30" as="alternateBounds" />
          </mxGeometry>
        </mxCell>
        <mxCell id="yjzS7AacyfTG5GW3nVSh-53" value="ngaySinh" style="shape=partialRectangle;connectable=0;fillColor=none;top=0;left=0;bottom=0;right=0;align=left;spacingLeft=6;overflow=hidden;whiteSpace=wrap;html=1;fontSize=16;" vertex="1" parent="yjzS7AacyfTG5GW3nVSh-51">
          <mxGeometry x="30" width="224" height="30" as="geometry">
            <mxRectangle width="224" height="30" as="alternateBounds" />
          </mxGeometry>
        </mxCell>
        <mxCell id="yjzS7AacyfTG5GW3nVSh-54" value="" style="shape=tableRow;horizontal=0;startSize=0;swimlaneHead=0;swimlaneBody=0;fillColor=none;collapsible=0;dropTarget=0;points=[[0,0.5],[1,0.5]];portConstraint=eastwest;top=0;left=0;right=0;bottom=0;fontSize=16;" vertex="1" parent="yjzS7AacyfTG5GW3nVSh-41">
          <mxGeometry y="150" width="254" height="30" as="geometry" />
        </mxCell>
        <mxCell id="yjzS7AacyfTG5GW3nVSh-55" value="" style="shape=partialRectangle;connectable=0;fillColor=none;top=0;left=0;bottom=0;right=0;editable=1;overflow=hidden;whiteSpace=wrap;html=1;fontSize=16;" vertex="1" parent="yjzS7AacyfTG5GW3nVSh-54">
          <mxGeometry width="30" height="30" as="geometry">
            <mxRectangle width="30" height="30" as="alternateBounds" />
          </mxGeometry>
        </mxCell>
        <mxCell id="yjzS7AacyfTG5GW3nVSh-56" value="theLoai" style="shape=partialRectangle;connectable=0;fillColor=none;top=0;left=0;bottom=0;right=0;align=left;spacingLeft=6;overflow=hidden;whiteSpace=wrap;html=1;fontSize=16;" vertex="1" parent="yjzS7AacyfTG5GW3nVSh-54">
          <mxGeometry x="30" width="224" height="30" as="geometry">
            <mxRectangle width="224" height="30" as="alternateBounds" />
          </mxGeometry>
        </mxCell>
        <mxCell id="yjzS7AacyfTG5GW3nVSh-109" value="" style="shape=tableRow;horizontal=0;startSize=0;swimlaneHead=0;swimlaneBody=0;fillColor=none;collapsible=0;dropTarget=0;points=[[0,0.5],[1,0.5]];portConstraint=eastwest;top=0;left=0;right=0;bottom=0;fontSize=16;" vertex="1" parent="yjzS7AacyfTG5GW3nVSh-41">
          <mxGeometry y="180" width="254" height="30" as="geometry" />
        </mxCell>
        <mxCell id="yjzS7AacyfTG5GW3nVSh-110" value="FK" style="shape=partialRectangle;connectable=0;fillColor=none;top=0;left=0;bottom=0;right=0;editable=1;overflow=hidden;whiteSpace=wrap;html=1;fontSize=16;" vertex="1" parent="yjzS7AacyfTG5GW3nVSh-109">
          <mxGeometry width="30" height="30" as="geometry">
            <mxRectangle width="30" height="30" as="alternateBounds" />
          </mxGeometry>
        </mxCell>
        <mxCell id="yjzS7AacyfTG5GW3nVSh-111" value="maMonHoc" style="shape=partialRectangle;connectable=0;fillColor=none;top=0;left=0;bottom=0;right=0;align=left;spacingLeft=6;overflow=hidden;whiteSpace=wrap;html=1;fontSize=16;" vertex="1" parent="yjzS7AacyfTG5GW3nVSh-109">
          <mxGeometry x="30" width="224" height="30" as="geometry">
            <mxRectangle width="224" height="30" as="alternateBounds" />
          </mxGeometry>
        </mxCell>
        <mxCell id="yjzS7AacyfTG5GW3nVSh-112" value="" style="shape=tableRow;horizontal=0;startSize=0;swimlaneHead=0;swimlaneBody=0;fillColor=none;collapsible=0;dropTarget=0;points=[[0,0.5],[1,0.5]];portConstraint=eastwest;top=0;left=0;right=0;bottom=0;fontSize=16;" vertex="1" parent="yjzS7AacyfTG5GW3nVSh-41">
          <mxGeometry y="210" width="254" height="30" as="geometry" />
        </mxCell>
        <mxCell id="yjzS7AacyfTG5GW3nVSh-113" value="FK" style="shape=partialRectangle;connectable=0;fillColor=none;top=0;left=0;bottom=0;right=0;editable=1;overflow=hidden;whiteSpace=wrap;html=1;fontSize=16;" vertex="1" parent="yjzS7AacyfTG5GW3nVSh-112">
          <mxGeometry width="30" height="30" as="geometry">
            <mxRectangle width="30" height="30" as="alternateBounds" />
          </mxGeometry>
        </mxCell>
        <mxCell id="yjzS7AacyfTG5GW3nVSh-114" value="maNhanVien" style="shape=partialRectangle;connectable=0;fillColor=none;top=0;left=0;bottom=0;right=0;align=left;spacingLeft=6;overflow=hidden;whiteSpace=wrap;html=1;fontSize=16;" vertex="1" parent="yjzS7AacyfTG5GW3nVSh-112">
          <mxGeometry x="30" width="224" height="30" as="geometry">
            <mxRectangle width="224" height="30" as="alternateBounds" />
          </mxGeometry>
        </mxCell>
        <mxCell id="yjzS7AacyfTG5GW3nVSh-60" value="&lt;blockquote style=&quot;margin: 0 0 0 40px; border: none; padding: 0px;&quot;&gt;MonHoc&lt;/blockquote&gt;" style="shape=table;startSize=30;container=1;collapsible=1;childLayout=tableLayout;fixedRows=1;rowLines=0;fontStyle=1;align=center;resizeLast=1;html=1;fontSize=16;" vertex="1" parent="1">
          <mxGeometry x="-264" y="-156" width="254" height="300" as="geometry" />
        </mxCell>
        <mxCell id="yjzS7AacyfTG5GW3nVSh-61" value="" style="shape=tableRow;horizontal=0;startSize=0;swimlaneHead=0;swimlaneBody=0;fillColor=none;collapsible=0;dropTarget=0;points=[[0,0.5],[1,0.5]];portConstraint=eastwest;top=0;left=0;right=0;bottom=1;fontSize=16;" vertex="1" parent="yjzS7AacyfTG5GW3nVSh-60">
          <mxGeometry y="30" width="254" height="30" as="geometry" />
        </mxCell>
        <mxCell id="yjzS7AacyfTG5GW3nVSh-62" value="PK" style="shape=partialRectangle;connectable=0;fillColor=none;top=0;left=0;bottom=0;right=0;fontStyle=1;overflow=hidden;whiteSpace=wrap;html=1;fontSize=16;" vertex="1" parent="yjzS7AacyfTG5GW3nVSh-61">
          <mxGeometry width="30" height="30" as="geometry">
            <mxRectangle width="30" height="30" as="alternateBounds" />
          </mxGeometry>
        </mxCell>
        <mxCell id="yjzS7AacyfTG5GW3nVSh-63" value="maMonHoc" style="shape=partialRectangle;connectable=0;fillColor=none;top=0;left=0;bottom=0;right=0;align=left;spacingLeft=6;fontStyle=5;overflow=hidden;whiteSpace=wrap;html=1;fontSize=16;" vertex="1" parent="yjzS7AacyfTG5GW3nVSh-61">
          <mxGeometry x="30" width="224" height="30" as="geometry">
            <mxRectangle width="224" height="30" as="alternateBounds" />
          </mxGeometry>
        </mxCell>
        <mxCell id="yjzS7AacyfTG5GW3nVSh-64" value="" style="shape=tableRow;horizontal=0;startSize=0;swimlaneHead=0;swimlaneBody=0;fillColor=none;collapsible=0;dropTarget=0;points=[[0,0.5],[1,0.5]];portConstraint=eastwest;top=0;left=0;right=0;bottom=0;fontSize=16;" vertex="1" parent="yjzS7AacyfTG5GW3nVSh-60">
          <mxGeometry y="60" width="254" height="30" as="geometry" />
        </mxCell>
        <mxCell id="yjzS7AacyfTG5GW3nVSh-65" value="" style="shape=partialRectangle;connectable=0;fillColor=none;top=0;left=0;bottom=0;right=0;editable=1;overflow=hidden;whiteSpace=wrap;html=1;fontSize=16;" vertex="1" parent="yjzS7AacyfTG5GW3nVSh-64">
          <mxGeometry width="30" height="30" as="geometry">
            <mxRectangle width="30" height="30" as="alternateBounds" />
          </mxGeometry>
        </mxCell>
        <mxCell id="yjzS7AacyfTG5GW3nVSh-66" value="tenMonHoc" style="shape=partialRectangle;connectable=0;fillColor=none;top=0;left=0;bottom=0;right=0;align=left;spacingLeft=6;overflow=hidden;whiteSpace=wrap;html=1;fontSize=16;" vertex="1" parent="yjzS7AacyfTG5GW3nVSh-64">
          <mxGeometry x="30" width="224" height="30" as="geometry">
            <mxRectangle width="224" height="30" as="alternateBounds" />
          </mxGeometry>
        </mxCell>
        <mxCell id="yjzS7AacyfTG5GW3nVSh-67" value="" style="shape=tableRow;horizontal=0;startSize=0;swimlaneHead=0;swimlaneBody=0;fillColor=none;collapsible=0;dropTarget=0;points=[[0,0.5],[1,0.5]];portConstraint=eastwest;top=0;left=0;right=0;bottom=0;fontSize=16;" vertex="1" parent="yjzS7AacyfTG5GW3nVSh-60">
          <mxGeometry y="90" width="254" height="30" as="geometry" />
        </mxCell>
        <mxCell id="yjzS7AacyfTG5GW3nVSh-68" value="" style="shape=partialRectangle;connectable=0;fillColor=none;top=0;left=0;bottom=0;right=0;editable=1;overflow=hidden;whiteSpace=wrap;html=1;fontSize=16;" vertex="1" parent="yjzS7AacyfTG5GW3nVSh-67">
          <mxGeometry width="30" height="30" as="geometry">
            <mxRectangle width="30" height="30" as="alternateBounds" />
          </mxGeometry>
        </mxCell>
        <mxCell id="yjzS7AacyfTG5GW3nVSh-69" value="soTinhChi" style="shape=partialRectangle;connectable=0;fillColor=none;top=0;left=0;bottom=0;right=0;align=left;spacingLeft=6;overflow=hidden;whiteSpace=wrap;html=1;fontSize=16;" vertex="1" parent="yjzS7AacyfTG5GW3nVSh-67">
          <mxGeometry x="30" width="224" height="30" as="geometry">
            <mxRectangle width="224" height="30" as="alternateBounds" />
          </mxGeometry>
        </mxCell>
        <mxCell id="yjzS7AacyfTG5GW3nVSh-70" value="" style="shape=tableRow;horizontal=0;startSize=0;swimlaneHead=0;swimlaneBody=0;fillColor=none;collapsible=0;dropTarget=0;points=[[0,0.5],[1,0.5]];portConstraint=eastwest;top=0;left=0;right=0;bottom=0;fontSize=16;" vertex="1" parent="yjzS7AacyfTG5GW3nVSh-60">
          <mxGeometry y="120" width="254" height="30" as="geometry" />
        </mxCell>
        <mxCell id="yjzS7AacyfTG5GW3nVSh-71" value="" style="shape=partialRectangle;connectable=0;fillColor=none;top=0;left=0;bottom=0;right=0;editable=1;overflow=hidden;whiteSpace=wrap;html=1;fontSize=16;" vertex="1" parent="yjzS7AacyfTG5GW3nVSh-70">
          <mxGeometry width="30" height="30" as="geometry">
            <mxRectangle width="30" height="30" as="alternateBounds" />
          </mxGeometry>
        </mxCell>
        <mxCell id="yjzS7AacyfTG5GW3nVSh-72" value="namBatDau" style="shape=partialRectangle;connectable=0;fillColor=none;top=0;left=0;bottom=0;right=0;align=left;spacingLeft=6;overflow=hidden;whiteSpace=wrap;html=1;fontSize=16;" vertex="1" parent="yjzS7AacyfTG5GW3nVSh-70">
          <mxGeometry x="30" width="224" height="30" as="geometry">
            <mxRectangle width="224" height="30" as="alternateBounds" />
          </mxGeometry>
        </mxCell>
        <mxCell id="yjzS7AacyfTG5GW3nVSh-73" value="" style="shape=tableRow;horizontal=0;startSize=0;swimlaneHead=0;swimlaneBody=0;fillColor=none;collapsible=0;dropTarget=0;points=[[0,0.5],[1,0.5]];portConstraint=eastwest;top=0;left=0;right=0;bottom=0;fontSize=16;" vertex="1" parent="yjzS7AacyfTG5GW3nVSh-60">
          <mxGeometry y="150" width="254" height="30" as="geometry" />
        </mxCell>
        <mxCell id="yjzS7AacyfTG5GW3nVSh-74" value="" style="shape=partialRectangle;connectable=0;fillColor=none;top=0;left=0;bottom=0;right=0;editable=1;overflow=hidden;whiteSpace=wrap;html=1;fontSize=16;" vertex="1" parent="yjzS7AacyfTG5GW3nVSh-73">
          <mxGeometry width="30" height="30" as="geometry">
            <mxRectangle width="30" height="30" as="alternateBounds" />
          </mxGeometry>
        </mxCell>
        <mxCell id="yjzS7AacyfTG5GW3nVSh-75" value="theLoai" style="shape=partialRectangle;connectable=0;fillColor=none;top=0;left=0;bottom=0;right=0;align=left;spacingLeft=6;overflow=hidden;whiteSpace=wrap;html=1;fontSize=16;" vertex="1" parent="yjzS7AacyfTG5GW3nVSh-73">
          <mxGeometry x="30" width="224" height="30" as="geometry">
            <mxRectangle width="224" height="30" as="alternateBounds" />
          </mxGeometry>
        </mxCell>
        <mxCell id="yjzS7AacyfTG5GW3nVSh-76" value="" style="shape=tableRow;horizontal=0;startSize=0;swimlaneHead=0;swimlaneBody=0;fillColor=none;collapsible=0;dropTarget=0;points=[[0,0.5],[1,0.5]];portConstraint=eastwest;top=0;left=0;right=0;bottom=0;fontSize=16;" vertex="1" parent="yjzS7AacyfTG5GW3nVSh-60">
          <mxGeometry y="180" width="254" height="30" as="geometry" />
        </mxCell>
        <mxCell id="yjzS7AacyfTG5GW3nVSh-77" value="" style="shape=partialRectangle;connectable=0;fillColor=none;top=0;left=0;bottom=0;right=0;editable=1;overflow=hidden;whiteSpace=wrap;html=1;fontSize=16;" vertex="1" parent="yjzS7AacyfTG5GW3nVSh-76">
          <mxGeometry width="30" height="30" as="geometry">
            <mxRectangle width="30" height="30" as="alternateBounds" />
          </mxGeometry>
        </mxCell>
        <mxCell id="yjzS7AacyfTG5GW3nVSh-78" value="moTaTomTat" style="shape=partialRectangle;connectable=0;fillColor=none;top=0;left=0;bottom=0;right=0;align=left;spacingLeft=6;overflow=hidden;whiteSpace=wrap;html=1;fontSize=16;" vertex="1" parent="yjzS7AacyfTG5GW3nVSh-76">
          <mxGeometry x="30" width="224" height="30" as="geometry">
            <mxRectangle width="224" height="30" as="alternateBounds" />
          </mxGeometry>
        </mxCell>
        <mxCell id="yjzS7AacyfTG5GW3nVSh-79" value="" style="shape=tableRow;horizontal=0;startSize=0;swimlaneHead=0;swimlaneBody=0;fillColor=none;collapsible=0;dropTarget=0;points=[[0,0.5],[1,0.5]];portConstraint=eastwest;top=0;left=0;right=0;bottom=0;fontSize=16;" vertex="1" parent="yjzS7AacyfTG5GW3nVSh-60">
          <mxGeometry y="210" width="254" height="30" as="geometry" />
        </mxCell>
        <mxCell id="yjzS7AacyfTG5GW3nVSh-80" value="" style="shape=partialRectangle;connectable=0;fillColor=none;top=0;left=0;bottom=0;right=0;editable=1;overflow=hidden;whiteSpace=wrap;html=1;fontSize=16;" vertex="1" parent="yjzS7AacyfTG5GW3nVSh-79">
          <mxGeometry width="30" height="30" as="geometry">
            <mxRectangle width="30" height="30" as="alternateBounds" />
          </mxGeometry>
        </mxCell>
        <mxCell id="yjzS7AacyfTG5GW3nVSh-81" value="moTaDayDu" style="shape=partialRectangle;connectable=0;fillColor=none;top=0;left=0;bottom=0;right=0;align=left;spacingLeft=6;overflow=hidden;whiteSpace=wrap;html=1;fontSize=16;" vertex="1" parent="yjzS7AacyfTG5GW3nVSh-79">
          <mxGeometry x="30" width="224" height="30" as="geometry">
            <mxRectangle width="224" height="30" as="alternateBounds" />
          </mxGeometry>
        </mxCell>
        <mxCell id="yjzS7AacyfTG5GW3nVSh-82" value="" style="shape=tableRow;horizontal=0;startSize=0;swimlaneHead=0;swimlaneBody=0;fillColor=none;collapsible=0;dropTarget=0;points=[[0,0.5],[1,0.5]];portConstraint=eastwest;top=0;left=0;right=0;bottom=0;fontSize=16;" vertex="1" parent="yjzS7AacyfTG5GW3nVSh-60">
          <mxGeometry y="240" width="254" height="30" as="geometry" />
        </mxCell>
        <mxCell id="yjzS7AacyfTG5GW3nVSh-83" value="" style="shape=partialRectangle;connectable=0;fillColor=none;top=0;left=0;bottom=0;right=0;editable=1;overflow=hidden;whiteSpace=wrap;html=1;fontSize=16;" vertex="1" parent="yjzS7AacyfTG5GW3nVSh-82">
          <mxGeometry width="30" height="30" as="geometry">
            <mxRectangle width="30" height="30" as="alternateBounds" />
          </mxGeometry>
        </mxCell>
        <mxCell id="yjzS7AacyfTG5GW3nVSh-84" value="mucTieuDauRa" style="shape=partialRectangle;connectable=0;fillColor=none;top=0;left=0;bottom=0;right=0;align=left;spacingLeft=6;overflow=hidden;whiteSpace=wrap;html=1;fontSize=16;" vertex="1" parent="yjzS7AacyfTG5GW3nVSh-82">
          <mxGeometry x="30" width="224" height="30" as="geometry">
            <mxRectangle width="224" height="30" as="alternateBounds" />
          </mxGeometry>
        </mxCell>
        <mxCell id="yjzS7AacyfTG5GW3nVSh-85" value="" style="shape=tableRow;horizontal=0;startSize=0;swimlaneHead=0;swimlaneBody=0;fillColor=none;collapsible=0;dropTarget=0;points=[[0,0.5],[1,0.5]];portConstraint=eastwest;top=0;left=0;right=0;bottom=0;fontSize=16;" vertex="1" parent="yjzS7AacyfTG5GW3nVSh-60">
          <mxGeometry y="270" width="254" height="30" as="geometry" />
        </mxCell>
        <mxCell id="yjzS7AacyfTG5GW3nVSh-86" value="FK" style="shape=partialRectangle;connectable=0;fillColor=none;top=0;left=0;bottom=0;right=0;editable=1;overflow=hidden;whiteSpace=wrap;html=1;fontSize=16;" vertex="1" parent="yjzS7AacyfTG5GW3nVSh-85">
          <mxGeometry width="30" height="30" as="geometry">
            <mxRectangle width="30" height="30" as="alternateBounds" />
          </mxGeometry>
        </mxCell>
        <mxCell id="yjzS7AacyfTG5GW3nVSh-87" value="maChuongTrinhDaoTao" style="shape=partialRectangle;connectable=0;fillColor=none;top=0;left=0;bottom=0;right=0;align=left;spacingLeft=6;overflow=hidden;whiteSpace=wrap;html=1;fontSize=16;" vertex="1" parent="yjzS7AacyfTG5GW3nVSh-85">
          <mxGeometry x="30" width="224" height="30" as="geometry">
            <mxRectangle width="224" height="30" as="alternateBounds" />
          </mxGeometry>
        </mxCell>
        <mxCell id="yjzS7AacyfTG5GW3nVSh-88" value="" style="edgeStyle=orthogonalEdgeStyle;fontSize=12;html=1;endArrow=ERoneToMany;rounded=0;startSize=8;endSize=8;exitX=0;exitY=0.5;exitDx=0;exitDy=0;entryX=1;entryY=0.5;entryDx=0;entryDy=0;" edge="1" parent="1" source="yjzS7AacyfTG5GW3nVSh-2" target="yjzS7AacyfTG5GW3nVSh-85">
          <mxGeometry width="100" height="100" relative="1" as="geometry">
            <mxPoint x="157" y="28" as="sourcePoint" />
            <mxPoint x="257" y="-72" as="targetPoint" />
          </mxGeometry>
        </mxCell>
        <mxCell id="yjzS7AacyfTG5GW3nVSh-89" value="NhanVien" style="shape=table;startSize=30;container=1;collapsible=1;childLayout=tableLayout;fixedRows=1;rowLines=0;fontStyle=1;align=center;resizeLast=1;html=1;fontSize=16;" vertex="1" parent="1">
          <mxGeometry x="495" y="-399" width="254" height="180" as="geometry" />
        </mxCell>
        <mxCell id="yjzS7AacyfTG5GW3nVSh-90" value="" style="shape=tableRow;horizontal=0;startSize=0;swimlaneHead=0;swimlaneBody=0;fillColor=none;collapsible=0;dropTarget=0;points=[[0,0.5],[1,0.5]];portConstraint=eastwest;top=0;left=0;right=0;bottom=1;fontSize=16;" vertex="1" parent="yjzS7AacyfTG5GW3nVSh-89">
          <mxGeometry y="30" width="254" height="30" as="geometry" />
        </mxCell>
        <mxCell id="yjzS7AacyfTG5GW3nVSh-91" value="PK" style="shape=partialRectangle;connectable=0;fillColor=none;top=0;left=0;bottom=0;right=0;fontStyle=1;overflow=hidden;whiteSpace=wrap;html=1;fontSize=16;" vertex="1" parent="yjzS7AacyfTG5GW3nVSh-90">
          <mxGeometry width="30" height="30" as="geometry">
            <mxRectangle width="30" height="30" as="alternateBounds" />
          </mxGeometry>
        </mxCell>
        <mxCell id="yjzS7AacyfTG5GW3nVSh-92" value="maNhanVien" style="shape=partialRectangle;connectable=0;fillColor=none;top=0;left=0;bottom=0;right=0;align=left;spacingLeft=6;fontStyle=5;overflow=hidden;whiteSpace=wrap;html=1;fontSize=16;" vertex="1" parent="yjzS7AacyfTG5GW3nVSh-90">
          <mxGeometry x="30" width="224" height="30" as="geometry">
            <mxRectangle width="224" height="30" as="alternateBounds" />
          </mxGeometry>
        </mxCell>
        <mxCell id="yjzS7AacyfTG5GW3nVSh-93" value="" style="shape=tableRow;horizontal=0;startSize=0;swimlaneHead=0;swimlaneBody=0;fillColor=none;collapsible=0;dropTarget=0;points=[[0,0.5],[1,0.5]];portConstraint=eastwest;top=0;left=0;right=0;bottom=0;fontSize=16;" vertex="1" parent="yjzS7AacyfTG5GW3nVSh-89">
          <mxGeometry y="60" width="254" height="30" as="geometry" />
        </mxCell>
        <mxCell id="yjzS7AacyfTG5GW3nVSh-94" value="" style="shape=partialRectangle;connectable=0;fillColor=none;top=0;left=0;bottom=0;right=0;editable=1;overflow=hidden;whiteSpace=wrap;html=1;fontSize=16;" vertex="1" parent="yjzS7AacyfTG5GW3nVSh-93">
          <mxGeometry width="30" height="30" as="geometry">
            <mxRectangle width="30" height="30" as="alternateBounds" />
          </mxGeometry>
        </mxCell>
        <mxCell id="yjzS7AacyfTG5GW3nVSh-95" value="hoDem" style="shape=partialRectangle;connectable=0;fillColor=none;top=0;left=0;bottom=0;right=0;align=left;spacingLeft=6;overflow=hidden;whiteSpace=wrap;html=1;fontSize=16;" vertex="1" parent="yjzS7AacyfTG5GW3nVSh-93">
          <mxGeometry x="30" width="224" height="30" as="geometry">
            <mxRectangle width="224" height="30" as="alternateBounds" />
          </mxGeometry>
        </mxCell>
        <mxCell id="yjzS7AacyfTG5GW3nVSh-96" value="" style="shape=tableRow;horizontal=0;startSize=0;swimlaneHead=0;swimlaneBody=0;fillColor=none;collapsible=0;dropTarget=0;points=[[0,0.5],[1,0.5]];portConstraint=eastwest;top=0;left=0;right=0;bottom=0;fontSize=16;" vertex="1" parent="yjzS7AacyfTG5GW3nVSh-89">
          <mxGeometry y="90" width="254" height="30" as="geometry" />
        </mxCell>
        <mxCell id="yjzS7AacyfTG5GW3nVSh-97" value="" style="shape=partialRectangle;connectable=0;fillColor=none;top=0;left=0;bottom=0;right=0;editable=1;overflow=hidden;whiteSpace=wrap;html=1;fontSize=16;" vertex="1" parent="yjzS7AacyfTG5GW3nVSh-96">
          <mxGeometry width="30" height="30" as="geometry">
            <mxRectangle width="30" height="30" as="alternateBounds" />
          </mxGeometry>
        </mxCell>
        <mxCell id="yjzS7AacyfTG5GW3nVSh-98" value="ten" style="shape=partialRectangle;connectable=0;fillColor=none;top=0;left=0;bottom=0;right=0;align=left;spacingLeft=6;overflow=hidden;whiteSpace=wrap;html=1;fontSize=16;" vertex="1" parent="yjzS7AacyfTG5GW3nVSh-96">
          <mxGeometry x="30" width="224" height="30" as="geometry">
            <mxRectangle width="224" height="30" as="alternateBounds" />
          </mxGeometry>
        </mxCell>
        <mxCell id="yjzS7AacyfTG5GW3nVSh-99" value="" style="shape=tableRow;horizontal=0;startSize=0;swimlaneHead=0;swimlaneBody=0;fillColor=none;collapsible=0;dropTarget=0;points=[[0,0.5],[1,0.5]];portConstraint=eastwest;top=0;left=0;right=0;bottom=0;fontSize=16;" vertex="1" parent="yjzS7AacyfTG5GW3nVSh-89">
          <mxGeometry y="120" width="254" height="30" as="geometry" />
        </mxCell>
        <mxCell id="yjzS7AacyfTG5GW3nVSh-100" value="" style="shape=partialRectangle;connectable=0;fillColor=none;top=0;left=0;bottom=0;right=0;editable=1;overflow=hidden;whiteSpace=wrap;html=1;fontSize=16;" vertex="1" parent="yjzS7AacyfTG5GW3nVSh-99">
          <mxGeometry width="30" height="30" as="geometry">
            <mxRectangle width="30" height="30" as="alternateBounds" />
          </mxGeometry>
        </mxCell>
        <mxCell id="yjzS7AacyfTG5GW3nVSh-101" value="ngaySinh" style="shape=partialRectangle;connectable=0;fillColor=none;top=0;left=0;bottom=0;right=0;align=left;spacingLeft=6;overflow=hidden;whiteSpace=wrap;html=1;fontSize=16;" vertex="1" parent="yjzS7AacyfTG5GW3nVSh-99">
          <mxGeometry x="30" width="224" height="30" as="geometry">
            <mxRectangle width="224" height="30" as="alternateBounds" />
          </mxGeometry>
        </mxCell>
        <mxCell id="yjzS7AacyfTG5GW3nVSh-102" value="" style="shape=tableRow;horizontal=0;startSize=0;swimlaneHead=0;swimlaneBody=0;fillColor=none;collapsible=0;dropTarget=0;points=[[0,0.5],[1,0.5]];portConstraint=eastwest;top=0;left=0;right=0;bottom=0;fontSize=16;" vertex="1" parent="yjzS7AacyfTG5GW3nVSh-89">
          <mxGeometry y="150" width="254" height="30" as="geometry" />
        </mxCell>
        <mxCell id="yjzS7AacyfTG5GW3nVSh-103" value="" style="shape=partialRectangle;connectable=0;fillColor=none;top=0;left=0;bottom=0;right=0;editable=1;overflow=hidden;whiteSpace=wrap;html=1;fontSize=16;" vertex="1" parent="yjzS7AacyfTG5GW3nVSh-102">
          <mxGeometry width="30" height="30" as="geometry">
            <mxRectangle width="30" height="30" as="alternateBounds" />
          </mxGeometry>
        </mxCell>
        <mxCell id="yjzS7AacyfTG5GW3nVSh-104" value="theLoai" style="shape=partialRectangle;connectable=0;fillColor=none;top=0;left=0;bottom=0;right=0;align=left;spacingLeft=6;overflow=hidden;whiteSpace=wrap;html=1;fontSize=16;" vertex="1" parent="yjzS7AacyfTG5GW3nVSh-102">
          <mxGeometry x="30" width="224" height="30" as="geometry">
            <mxRectangle width="224" height="30" as="alternateBounds" />
          </mxGeometry>
        </mxCell>
        <mxCell id="yjzS7AacyfTG5GW3nVSh-115" value="" style="edgeStyle=entityRelationEdgeStyle;fontSize=12;html=1;endArrow=ERoneToMany;rounded=0;startSize=8;endSize=8;curved=1;exitX=0;exitY=0.5;exitDx=0;exitDy=0;entryX=1;entryY=0.5;entryDx=0;entryDy=0;" edge="1" parent="1" source="yjzS7AacyfTG5GW3nVSh-90" target="yjzS7AacyfTG5GW3nVSh-112">
          <mxGeometry width="100" height="100" relative="1" as="geometry">
            <mxPoint x="205" y="-33" as="sourcePoint" />
            <mxPoint x="305" y="-133" as="targetPoint" />
          </mxGeometry>
        </mxCell>
        <mxCell id="yjzS7AacyfTG5GW3nVSh-116" value="" style="edgeStyle=entityRelationEdgeStyle;fontSize=12;html=1;endArrow=ERoneToMany;rounded=0;startSize=8;endSize=8;curved=1;exitX=1;exitY=0.5;exitDx=0;exitDy=0;entryX=0;entryY=0.5;entryDx=0;entryDy=0;" edge="1" parent="1" source="yjzS7AacyfTG5GW3nVSh-61" target="yjzS7AacyfTG5GW3nVSh-109">
          <mxGeometry width="100" height="100" relative="1" as="geometry">
            <mxPoint x="205" y="-33" as="sourcePoint" />
            <mxPoint x="305" y="-133" as="targetPoint" />
          </mxGeometry>
        </mxCell>
      </root>
    </mxGraphModel>
  </diagram>
  <diagram id="9FG-B6-d2dHKTw6eXeSf" name="Bài 3 Thao tác CSDL">
    <mxGraphModel dx="612" dy="1492" grid="0" gridSize="10" guides="1" tooltips="1" connect="1" arrows="1" fold="1" page="0" pageScale="1" pageWidth="827" pageHeight="1169" math="0" shadow="0">
      <root>
        <mxCell id="0" />
        <mxCell id="1" parent="0" />
        <mxCell id="PJYBS3JXNz5NHlTgmFfI-1" value="Bài 3&lt;br&gt;Thao tác CSDL" style="ellipse;whiteSpace=wrap;html=1;fontSize=16;" vertex="1" parent="1">
          <mxGeometry x="40" y="187" width="128" height="94" as="geometry" />
        </mxCell>
        <mxCell id="xgzdBjYiPT3juhysTLvr-1" value="Câu 1&lt;br&gt;Có mấy cách để viết câu lệnh SELECT? &lt;br&gt;Cách nào tốt hơn?&lt;br&gt;&amp;nbsp;Tại sao?" style="ellipse;whiteSpace=wrap;html=1;fontSize=16;" vertex="1" parent="1">
          <mxGeometry x="201" y="-125" width="314" height="156" as="geometry" />
        </mxCell>
        <mxCell id="xgzdBjYiPT3juhysTLvr-3" value="Select tất cả các cột (SELECT *)&lt;br&gt;SELECT * FROM table_name&lt;br&gt;Ý nghĩa: lấy toàn bộ cột từ bảng&amp;nbsp;table_name" style="rounded=1;whiteSpace=wrap;html=1;fontSize=16;" vertex="1" parent="1">
          <mxGeometry x="400" y="-401" width="366" height="73" as="geometry" />
        </mxCell>
        <mxCell id="xgzdBjYiPT3juhysTLvr-4" value="Select các cột cụ thể&lt;br&gt;SELECT column1, column2 FROM table_name" style="rounded=1;whiteSpace=wrap;html=1;fontSize=16;" vertex="1" parent="1">
          <mxGeometry x="480" y="-243" width="354" height="73" as="geometry" />
        </mxCell>
      </root>
    </mxGraphModel>
  </diagram>
</mxfile>
